<?xml version="1.0" standalone="no"?>
<!DOCTYPE svg PUBLIC "-//W3C//DTD SVG 20010904//EN"
 "http://www.w3.org/TR/2001/REC-SVG-20010904/DTD/svg10.dtd">
<svg version="1.0" xmlns="http://www.w3.org/2000/svg"
 width="800.000000pt" height="360.000000pt" viewBox="0 0 800.000000 360.000000"
 preserveAspectRatio="xMidYMid meet">

<g transform="translate(0.000000,360.000000) scale(0.100000,-0.100000)"
fill="#000000" stroke="none">
<path d="M4052 3245 c-50 -22 -140 -113 -182 -185 -67 -112 -110 -271 -129
-471 -15 -161 -78 -316 -170 -421 -40 -45 -108 -82 -134 -73 -25 10 -65 87
-88 168 -19 69 -23 105 -22 227 1 165 14 229 85 408 55 137 113 226 151 230
24 3 27 0 27 -28 0 -38 -19 -77 -54 -109 -30 -28 -34 -51 -8 -51 19 0 72 51
91 87 19 38 13 89 -15 123 -38 44 -75 60 -142 60 -163 0 -301 -154 -364 -406
-33 -133 -33 -368 1 -474 12 -41 32 -92 43 -113 70 -139 244 -221 359 -170 87
38 176 142 223 260 l23 54 20 -84 c39 -156 93 -242 184 -292 47 -26 64 -30
135 -30 69 0 86 3 118 25 49 33 109 124 136 207 13 38 25 72 27 76 3 4 19 -16
36 -45 75 -124 237 -157 305 -61 11 16 36 59 56 96 20 38 38 63 40 55 2 -7 7
-67 10 -133 7 -137 27 -233 51 -251 45 -33 156 -24 194 17 25 27 31 69 31 215
0 115 2 129 41 250 84 264 236 524 306 524 32 0 30 -22 -16 -143 -94 -247
-103 -396 -33 -538 21 -43 37 -59 72 -76 104 -53 213 -8 283 115 l31 55 13
-45 c43 -148 198 -240 300 -179 33 21 102 129 131 206 9 25 19 45 23 45 4 0
13 -16 19 -35 17 -50 102 -139 162 -169 126 -63 232 -9 320 160 30 59 48 79
48 54 0 -26 75 -90 128 -110 82 -31 145 -24 210 23 52 37 62 35 62 -12 0 -30
57 -135 92 -168 19 -18 47 -35 64 -39 27 -5 35 -1 73 42 72 82 139 243 171
409 16 82 11 120 -15 120 -16 0 -22 -9 -28 -45 -29 -158 -68 -275 -125 -370
l-27 -45 -7 70 c-4 39 -5 131 -1 205 l5 136 -27 32 c-15 18 -44 37 -67 44 -38
11 -42 10 -58 -10 -17 -20 -41 -112 -55 -203 -9 -63 -123 -154 -169 -136 -21
8 -39 100 -31 154 21 144 128 303 203 303 11 0 32 -16 46 -35 29 -38 56 -46
56 -16 0 31 -43 83 -90 109 -39 20 -56 23 -120 20 -91 -4 -138 -25 -202 -89
-55 -55 -83 -107 -102 -187 -22 -93 -89 -212 -156 -276 -103 -99 -131 -75
-138 120 -3 100 0 137 17 203 24 95 72 199 108 233 l25 23 19 -24 c25 -31 24
-55 -6 -118 -13 -29 -19 -53 -14 -53 21 0 68 62 75 96 17 92 -95 204 -204 204
-70 0 -171 -87 -220 -191 -17 -35 -38 -102 -47 -149 -31 -162 -46 -215 -90
-305 -48 -100 -88 -146 -107 -127 -17 17 -16 249 1 390 14 108 14 113 -5 139
-33 44 -70 66 -122 71 -50 4 -51 4 -70 -34 -28 -57 -50 -130 -66 -219 -20
-110 -78 -244 -131 -303 l-43 -47 -12 30 c-15 38 -15 284 -1 380 18 121 14
232 -10 283 -27 54 -87 97 -139 97 -91 0 -210 -146 -306 -375 -23 -55 -23 -55
-24 -19 0 19 5 84 11 143 9 93 9 110 -5 131 -23 34 -89 66 -151 72 -47 5 -56
3 -78 -19 -32 -32 -43 -73 -63 -223 -21 -165 -48 -264 -99 -370 -48 -100 -87
-147 -107 -127 -17 17 -16 249 1 390 14 108 14 113 -5 139 -33 44 -70 66 -122
71 -50 4 -51 4 -70 -34 -29 -57 -60 -168 -72 -259 -25 -187 -95 -377 -169
-453 -48 -49 -84 -62 -110 -38 -36 33 -81 220 -81 337 0 50 6 65 57 150 66
109 137 264 183 399 25 72 33 113 34 172 1 72 -1 78 -29 109 -53 56 -118 72
-183 44z m152 -81 c21 -55 -16 -213 -98 -417 -61 -151 -104 -237 -119 -237
-11 0 -2 121 19 240 37 208 95 366 152 411 30 23 38 24 46 3z"/>
<path d="M4538 3133 c-44 -51 -49 -106 -15 -173 29 -59 101 -101 142 -82 32
15 55 67 55 128 0 58 -22 105 -59 127 -38 22 -103 22 -123 0z"/>
<path d="M5958 3133 c-44 -51 -49 -106 -15 -173 29 -59 101 -101 142 -82 32
15 55 67 55 128 0 58 -22 105 -59 127 -38 22 -103 22 -123 0z"/>
<path d="M140 3046 c0 -7 24 -56 53 -107 29 -52 70 -125 91 -164 22 -38 58
-104 81 -145 23 -41 55 -97 70 -125 15 -27 71 -126 123 -220 53 -93 109 -195
125 -225 16 -30 33 -59 37 -65 4 -5 21 -35 37 -65 16 -30 53 -98 83 -150 29
-52 63 -113 75 -135 12 -22 56 -101 97 -175 243 -434 467 -836 506 -908 25
-45 48 -82 51 -82 3 0 18 22 32 48 28 53 163 294 232 417 207 369 316 569 312
573 -2 3 -11 0 -18 -7 -50 -41 -207 -53 -280 -22 -87 37 -130 87 -225 257 -27
49 -61 109 -75 134 -13 25 -58 106 -100 180 -41 74 -126 228 -190 342 -64 114
-121 224 -126 245 -14 50 -14 152 1 194 20 60 75 135 122 169 25 19 46 37 46
42 0 4 -261 8 -580 8 -485 0 -580 -2 -580 -14z"/>
<path d="M1677 3009 c48 -47 100 -132 256 -419 16 -30 33 -59 37 -65 4 -5 23
-39 42 -75 20 -36 45 -83 58 -105 23 -41 93 -166 163 -290 52 -94 77 -158 77
-201 0 -19 4 -33 9 -30 5 4 29 43 54 89 24 45 55 100 67 122 57 101 335 599
430 770 43 77 89 160 104 185 14 25 26 51 26 58 0 9 -144 12 -687 12 l-688 0
52 -51z"/>
<path d="M4569 1900 c-9 -5 -24 -30 -33 -55 -13 -34 -22 -44 -34 -41 -10 3
-75 12 -147 22 -210 27 -326 8 -388 -65 -28 -33 -35 -65 -17 -76 6 -4 31 11
55 33 27 23 63 44 90 51 60 15 180 14 300 -4 55 -8 104 -15 109 -15 9 0 6 -45
-14 -200 -5 -41 -12 -151 -15 -245 -8 -193 -22 -257 -85 -382 -45 -90 -83
-134 -102 -115 -17 17 -16 249 1 390 14 108 14 113 -5 139 -34 45 -70 66 -123
71 l-51 5 -25 -54 c-21 -48 -36 -97 -67 -231 -12 -50 -82 -153 -122 -177 -39
-25 -65 -26 -91 -7 -19 14 -19 16 3 102 36 143 43 192 43 324 1 258 -68 427
-170 418 -32 -3 -39 -9 -63 -53 -77 -142 -94 -415 -39 -596 11 -35 36 -89 54
-121 l34 -56 -27 -69 c-35 -86 -89 -175 -101 -167 -16 9 -95 174 -123 256 -36
105 -63 225 -76 342 -12 102 -8 168 16 250 17 58 7 81 -41 102 -47 19 -104 17
-141 -5 -85 -52 -126 -282 -89 -497 46 -263 168 -501 288 -558 47 -22 142 -20
186 3 45 24 119 114 166 205 l39 73 47 -5 c62 -6 108 11 162 58 l44 39 7 -48
c8 -65 60 -165 100 -196 74 -56 156 -70 213 -36 30 19 92 112 128 196 l18 40
13 -79 c34 -209 98 -306 203 -306 115 0 179 74 271 310 19 47 35 87 36 88 1 2
19 -14 39 -37 48 -52 130 -84 201 -79 39 3 64 13 102 41 52 37 62 35 62 -11 0
-30 47 -119 85 -160 47 -53 87 -63 122 -30 40 37 84 106 119 187 31 70 33 73
39 45 18 -83 61 -198 92 -243 37 -57 104 -105 168 -122 61 -17 147 -7 190 22
48 32 108 123 135 206 13 38 25 72 27 76 3 4 19 -16 36 -45 59 -98 188 -147
264 -99 44 28 108 139 157 275 6 18 8 18 34 -7 38 -37 110 -67 160 -67 47 0
79 14 151 65 61 43 109 67 127 63 10 -2 -2 -16 -33 -39 -234 -175 -279 -298
-110 -300 143 -2 281 135 263 260 -4 25 -8 55 -9 65 -1 14 23 36 86 80 77 53
85 62 72 75 -13 13 -20 12 -57 -8 -24 -13 -66 -41 -95 -62 l-52 -39 -37 16
c-51 21 -84 13 -187 -46 -47 -27 -98 -52 -112 -56 -23 -6 -25 -4 -25 27 0 79
44 193 116 300 44 67 122 139 150 139 23 0 16 -52 -11 -92 -43 -64 2 -58 57 7
22 25 23 86 3 124 -51 100 -195 131 -302 65 -99 -61 -193 -226 -209 -365 -18
-165 -144 -423 -186 -381 -17 17 -16 249 1 390 14 108 14 113 -5 139 -33 44
-70 66 -122 71 -50 4 -51 4 -70 -34 -29 -57 -60 -168 -72 -259 -25 -187 -95
-377 -169 -453 -48 -49 -84 -62 -110 -38 -36 33 -81 220 -81 337 0 50 6 65 57
150 66 109 137 264 183 399 25 73 33 113 34 173 l1 78 -41 39 c-84 78 -161 65
-269 -44 -113 -114 -180 -280 -205 -510 -20 -181 -60 -312 -128 -426 l-27 -45
-7 70 c-4 39 -5 131 -1 205 l5 136 -27 32 c-15 18 -44 37 -67 44 -38 11 -42
10 -58 -10 -17 -20 -41 -112 -55 -203 -9 -63 -123 -154 -169 -136 -21 8 -39
100 -31 154 21 144 128 303 203 303 11 0 32 -16 46 -35 29 -38 56 -46 56 -16
0 31 -43 83 -90 109 -39 20 -56 23 -120 20 -91 -4 -138 -25 -203 -90 -59 -59
-93 -131 -106 -224 -20 -139 -115 -361 -191 -446 -63 -71 -80 -25 -87 237 -5
187 1 291 34 613 l16 162 121 0 c67 0 150 5 186 11 115 18 230 86 230 134 0
33 -18 40 -43 18 -70 -63 -162 -92 -318 -100 -131 -7 -169 -1 -169 25 0 60
-149 144 -201 112z m1655 -146 c21 -55 -16 -213 -98 -417 -61 -151 -104 -237
-119 -237 -11 0 -2 121 19 240 37 208 95 366 152 411 30 23 38 24 46 3z
m-2493 -91 c21 -74 19 -353 -4 -475 -11 -54 -23 -98 -27 -98 -23 0 -60 178
-60 289 0 124 44 331 70 331 4 0 14 -21 21 -47z m3609 -708 c0 -50 -95 -171
-156 -200 -48 -23 -62 -9 -39 38 15 32 169 177 188 177 4 0 7 -7 7 -15z"/>
<path d="M4208 1723 c-44 -51 -49 -106 -15 -173 29 -59 101 -101 142 -82 32
15 55 67 55 128 0 58 -22 105 -59 127 -38 22 -103 22 -123 0z"/>
<path d="M6558 1723 c-44 -51 -49 -106 -15 -173 29 -59 101 -101 142 -82 32
15 55 67 55 128 0 58 -22 105 -59 127 -38 22 -103 22 -123 0z"/>
</g>
</svg>
